HIERARCHY
ROOT Hips
{
	OFFSET 0.000000 0.000000 0.000000
	CHANNELS 6 Xposition Yposition Zposition Zrotation Yrotation Xrotation 
	JOINT LHipJoint
	{
		OFFSET 0.000000 0.000000 0.000000
		CHANNELS 3 Zrotation Yrotation Xrotation
		JOINT LeftUpLeg
		{
			OFFSET 1.363060 -1.794630 0.839290
			CHANNELS 3 Zrotation Yrotation Xrotation
			JOINT LeftLeg
			{
				OFFSET 2.448110 -6.726130 0.000000
				CHANNELS 3 Zrotation Yrotation Xrotation
				JOINT LeftFoot
				{
					OFFSET 2.562200 -7.039590 0.000000
					CHANNELS 3 Zrotation Yrotation Xrotation
					JOINT LeftToeBase
					{
						OFFSET 0.157640 -0.433110 2.322550
						CHANNELS 3 Zrotation Yrotation Xrotation
						End Site
						{
							OFFSET 0.000000 0.000000 0.000000
						}
					}
				}
			}
		}
	}
	JOINT RHipJoint
	{
		OFFSET 0.000000 0.000000 0.000000
		CHANNELS 3 Zrotation Yrotation Xrotation
		JOINT RightUpLeg
		{
			OFFSET -1.305520 -1.794630 0.839290
			CHANNELS 3 Zrotation Yrotation Xrotation
			JOINT RightLeg
			{
				OFFSET -2.542530 -6.985550 0.000000
				CHANNELS 3 Zrotation Yrotation Xrotation
				JOINT RightFoot
				{
					OFFSET -2.568260 -7.056230 0.000000
					CHANNELS 3 Zrotation Yrotation Xrotation
					JOINT RightToeBase
					{
						OFFSET -0.164730 -0.452590 2.363150
						CHANNELS 3 Zrotation Yrotation Xrotation
						End Site
						{
							OFFSET 0.000000 0.000000 0.000000
						}
					}
				}
			}
		}
	}
	JOINT LowerBack
	{
		OFFSET 0.000000 0.000000 0.000000
		CHANNELS 3 Zrotation Yrotation Xrotation
		JOINT Spine
		{
			OFFSET 0.028270 2.035590 -0.193380
			CHANNELS 3 Zrotation Yrotation Xrotation
			JOINT Spine1
			{
				OFFSET 0.056720 2.048850 -0.042750
				CHANNELS 3 Zrotation Yrotation Xrotation
				JOINT Neck
				{
					OFFSET 0.000000 0.000000 0.000000
					CHANNELS 3 Zrotation Yrotation Xrotation
					JOINT Neck1
					{
						OFFSET -0.054170 1.746240 0.172020
						CHANNELS 3 Zrotation Yrotation Xrotation
						JOINT Head
						{
							OFFSET 0.104070 1.761360 -0.123970
							CHANNELS 3 Zrotation Yrotation Xrotation
							End Site
							{
								OFFSET 0.000000 0.000000 0.000000
							}
						}
					}
				}
				JOINT LeftShoulder
				{
					OFFSET 0.000000 0.000000 0.000000
					CHANNELS 3 Zrotation Yrotation Xrotation
					JOINT LeftArm
					{
						OFFSET 3.362410 1.200890 -0.311210
						CHANNELS 3 Zrotation Yrotation Xrotation
						JOINT LeftForeArm
						{
							OFFSET 4.983000 -0.000000 -0.000000
							CHANNELS 3 Zrotation Yrotation Xrotation
							JOINT LeftHand
							{
								OFFSET 3.483560 -0.000000 -0.000000
								CHANNELS 3 Zrotation Yrotation Xrotation
								JOINT LeftFingerBase
								{
									OFFSET 0.000000 0.000000 0.000000
									CHANNELS 3 Zrotation Yrotation Xrotation
									JOINT LeftHandIndex1
									{
										OFFSET 0.715260 -0.000000 -0.000000
										CHANNELS 3 Zrotation Yrotation Xrotation
										End Site
										{
											OFFSET 0.000000 0.000000 0.000000
										}
									}
								}
								JOINT LThumb
								{
									OFFSET 0.000000 0.000000 0.000000
									CHANNELS 3 Zrotation Yrotation Xrotation
									End Site
									{
										OFFSET 0.000000 0.000000 0.000000
									}
								}
							}
						}
					}
				}
				JOINT RightShoulder
				{
					OFFSET 0.000000 0.000000 0.000000
					CHANNELS 3 Zrotation Yrotation Xrotation
					JOINT RightArm
					{
						OFFSET -3.136600 1.374050 -0.404650
						CHANNELS 3 Zrotation Yrotation Xrotation
						JOINT RightForeArm
						{
							OFFSET -5.241900 -0.000000 -0.000000
							CHANNELS 3 Zrotation Yrotation Xrotation
							JOINT RightHand
							{
								OFFSET -3.444170 -0.000000 -0.000000
								CHANNELS 3 Zrotation Yrotation Xrotation
								JOINT RightFingerBase
								{
									OFFSET 0.000000 0.000000 0.000000
									CHANNELS 3 Zrotation Yrotation Xrotation
									JOINT RightHandIndex1
									{
										OFFSET -0.622530 -0.000000 -0.000000
										CHANNELS 3 Zrotation Yrotation Xrotation
										End Site
										{
											OFFSET 0.000000 0.000000 0.000000
										}
									}
								}
								JOINT RThumb
								{
									OFFSET 0.000000 0.000000 0.000000
									CHANNELS 3 Zrotation Yrotation Xrotation
									End Site
									{
										OFFSET 0.000000 0.000000 0.000000
									}
								}
							}
						}
					}
				}
			}
		}
	}
}
MOTION
Frames: 11
Frame Time: 0.008333
-1.544520 16.326666 29.568957 0.219035 -51.344373 -4.928385 2.340099 0.549396 -5.051681 -1.138865 22.018555 -36.682984 2.564345 9.981910 15.299573 4.782628 31.344887 59.452233 0.271400 3.351100 9.257800 -0.318553 1.386199 1.130127 15.275808 -14.449751 -31.718410 -11.612849 -19.273361 64.883826 2.426798 -10.021943 -9.217376 -0.006600 0.524400 -1.441000 0.205807 6.102252 18.913423 -0.225238 8.786406 -3.208568 -4.902881 3.571019 -8.679859 0.219413 8.212295 -7.155579 4.407530 10.669270 9.626249 1.381600 5.434100 4.554500 6.337137 -12.080846 2.782480 -57.480856 -35.570947 0.958726 90.060281 -51.672436 -79.644501 -0.537373 -3.902272 11.290924 53.741396 33.251862 41.216400 -7.125000 0.000000 0.000000 57.852000 80.467000 49.350200 -7.670981 11.409723 1.776240 70.988390 15.189814 77.621450 -126.961474 45.870433 -95.344881 -1.298676 1.736603 -59.367788 9.830490 -11.674840 -2.157700 7.125000 0.000000 0.000000 31.753000 -41.388400 3.197100 
-1.520265 16.259615 29.816757 0.646671 -52.587265 -5.365737 2.602951 0.642115 -4.665852 -1.648149 22.547978 -36.733550 2.774420 10.034129 16.260058 4.849049 28.689751 59.245006 0.200800 2.885200 7.959300 -0.576865 1.238979 1.023632 14.342700 -14.061105 -31.294818 -11.888657 -19.353542 65.530718 2.243616 -9.752334 -9.558098 -0.020000 0.911900 -2.506500 0.467277 6.216049 18.734602 -0.284898 8.982349 -3.184263 -5.260576 3.646269 -8.599753 0.253427 8.481346 -7.048616 4.342958 11.031864 9.691357 1.321700 5.615300 4.543100 6.315731 -11.877641 2.836101 -59.204287 -35.412968 -0.300356 85.909849 -51.154780 -76.497129 -0.616231 -4.200883 9.219228 53.096973 31.739331 39.970200 -7.125000 0.000000 0.000000 52.170100 79.259900 43.120600 -7.569270 11.212726 1.782405 70.491713 12.158274 75.122484 -128.070400 45.663771 -96.420887 -1.340576 1.718528 -74.856097 8.782360 -15.867452 -2.288200 7.125000 0.000000 0.000000 32.382100 -44.968500 0.028300 
-1.500441 16.184750 30.046365 1.045600 -53.574916 -5.803133 2.862908 0.659725 -4.354843 -2.255315 23.098715 -36.956747 2.983303 10.155900 17.441977 4.734541 26.186374 58.660652 0.130200 2.326000 6.407500 -0.828214 1.127587 0.919022 13.524213 -13.759413 -30.971906 -12.180558 -19.429878 66.259028 2.145344 -9.658719 -10.055632 -0.035000 1.207400 -3.319800 0.657112 6.251432 18.650757 -0.328881 9.057259 -3.164226 -5.534156 3.668164 -8.580467 0.293097 8.750176 -6.910958 4.285592 11.392706 9.749689 1.265200 5.795400 4.531100 6.263062 -11.730170 2.827290 -60.321787 -35.006616 -1.016586 82.174688 -50.342965 -73.442797 -0.721781 -4.338834 9.161852 52.476578 30.740329 38.847900 -7.125000 0.000000 0.000000 47.935000 78.303100 38.579600 -7.463746 11.080378 1.800634 69.994124 9.705220 73.284518 -128.136653 45.903191 -96.604046 -1.383522 1.739474 -85.110966 7.308273 -18.650072 -1.983000 7.125000 0.000000 0.000000 32.241500 -47.403500 -2.125500 
-1.485048 16.105221 30.255449 1.384200 -54.302430 -6.218442 3.099351 0.635766 -4.132003 -2.878124 23.613588 -37.303081 3.204191 10.361637 18.770670 4.452765 24.164030 57.731085 0.078400 1.806300 4.970700 -1.063917 1.040820 0.829304 12.852166 -13.581061 -30.754552 -12.478873 -19.501276 67.054048 2.141357 -9.762592 -10.711765 -0.045400 1.374700 -3.780300 0.743459 6.212931 18.662223 -0.352908 9.011530 -3.148821 -5.696846 3.639161 -8.608210 0.342865 8.993377 -6.765536 4.258328 11.714472 9.786201 1.227500 5.957900 4.506900 6.177244 -11.630211 2.774930 -60.872804 -34.332865 -1.318452 79.032957 -49.458214 -70.697914 -0.854345 -4.342216 10.739708 51.861006 30.291683 37.908900 -7.125000 0.000000 0.000000 44.704600 77.707300 35.327700 -7.359494 11.002403 1.829487 69.506153 7.877388 72.318780 -127.723967 46.317669 -96.334677 -1.428414 1.795863 -90.410811 5.719014 -20.213593 -1.454900 7.125000 0.000000 0.000000 31.516300 -48.894800 -3.332000 
-1.473504 16.024876 30.443660 1.619984 -54.789732 -6.574092 3.316750 0.592227 -3.998165 -3.445795 24.031829 -37.697210 3.450635 10.641234 20.163323 4.060973 22.688944 56.577448 0.046700 1.395100 3.836600 -1.275908 0.971278 0.762243 12.348930 -13.541800 -30.634557 -12.769915 -19.564966 67.885836 2.231389 -10.066174 -11.502206 -0.047400 1.404700 -3.863000 0.722768 6.108996 18.761618 -0.357366 8.855771 -3.137105 -5.740487 3.564845 -8.669664 0.405153 9.182929 -6.625915 4.275942 11.958180 9.782755 1.217000 6.084800 4.449800 6.061549 -11.568304 2.704503 -60.912810 -33.440020 -1.332060 76.525029 -48.663485 -68.403061 -0.992990 -4.253721 13.436688 51.280030 30.357194 37.226500 -7.125000 0.000000 0.000000 42.329300 77.527600 33.196100 -7.260703 10.967324 1.866894 69.037589 6.659587 72.181760 -127.192249 46.718980 -95.906912 -1.469043 1.871421 -91.636736 4.376601 -20.953894 -0.946700 7.125000 0.000000 0.000000 30.662800 -49.737800 -3.910600 
-1.464524 15.947445 30.612514 1.706718 -55.077920 -6.819858 3.532489 0.540329 -3.943148 -3.899646 24.308948 -38.070397 3.720611 10.968283 21.553450 3.630480 21.640181 55.344886 0.028500 1.090200 2.996900 -1.458273 0.916071 0.719106 12.026079 -13.638602 -30.599349 -13.039715 -19.618379 68.716216 2.400976 -10.542239 -12.382986 -0.041200 1.310500 -3.603500 0.621515 5.953847 18.932536 -0.345240 8.614523 -3.128092 -5.674221 3.455650 -8.753960 0.475551 9.298670 -6.497223 4.342191 12.097710 9.727404 1.236300 6.163700 4.342000 5.923560 -11.535973 2.638685 -60.515900 -32.421333 -1.143998 74.607643 -48.035308 -66.610611 -1.118927 -4.117713 16.643433 50.810532 30.807940 36.855700 -7.125000 0.000000 0.000000 40.824600 77.719100 32.097600 -7.170507 10.963742 1.909693 68.597173 5.972008 72.718624 -126.700690 47.032514 -95.456497 -1.498316 1.945882 -89.831459 3.714993 -21.164849 -0.691700 7.125000 0.000000 0.000000 30.221300 -50.096700 -4.130200 
-1.456828 15.875729 30.764808 1.610801 -55.221292 -6.907937 3.766517 0.484483 -3.951914 -4.203442 24.429733 -38.383299 3.999229 11.314519 22.903436 3.228308 20.818728 54.153586 0.016900 0.839700 2.308000 -1.608795 0.875622 0.695988 11.880871 -13.852581 -30.637677 -13.277050 -19.660082 69.506749 2.630449 -11.150509 -13.299688 -0.030500 1.128200 -3.101500 0.484892 5.767425 19.151716 -0.320838 8.324764 -3.121319 -5.521579 3.325852 -8.855438 0.546771 9.330995 -6.372650 4.447775 12.123309 9.617379 1.278400 6.189200 4.174700 5.774277 -11.527013 2.591707 -59.774189 -31.389352 -0.797059 73.182602 -47.573543 -65.281901 -1.227209 -3.968050 19.753249 50.559571 31.463334 36.836500 -7.125000 0.000000 0.000000 40.397500 78.168900 32.086900 -7.089618 10.981540 1.954980 68.187432 5.682290 73.695404 -126.313034 47.241809 -95.050834 -1.513765 2.000045 -86.286320 3.965769 -20.993120 -0.805200 7.125000 0.000000 0.000000 30.466400 -50.022700 -4.110200 
-1.449248 15.811243 30.904159 1.330980 -55.277628 -6.814059 4.032860 0.427338 -4.009117 -4.356468 24.413937 -38.634095 4.271794 11.660564 24.202779 2.897640 20.055286 53.068695 0.008400 0.591200 1.624700 -1.730849 0.850569 0.685879 11.889356 -14.154286 -30.740995 -13.477801 -19.690567 70.227262 2.889581 -11.825811 -14.189804 -0.019400 0.898800 -2.470300 0.355171 5.574752 19.389887 -0.289049 8.030050 -3.116721 -5.310935 3.193297 -8.969909 0.609474 9.284597 -6.242479 4.575550 12.045060 9.462348 1.331500 6.164400 3.955100 5.626557 -11.537197 2.568039 -58.791511 -30.454407 -0.312982 72.113882 -47.226676 -64.302922 -1.323437 -3.824762 22.320484 50.582746 32.159383 37.153900 -7.125000 0.000000 0.000000 41.179900 78.737300 33.177800 -7.017451 11.012025 2.000335 67.811852 5.635345 74.835178 -126.101145 47.333283 -94.776359 -1.518144 2.022733 -82.451892 4.943216 -20.547794 -1.203800 7.125000 0.000000 0.000000 31.237700 -49.596900 -3.881100 
-1.440969 15.753987 31.034414 0.900065 -55.299901 -6.543530 4.336398 0.371899 -4.101087 -4.394356 24.311188 -38.852899 4.532022 11.997630 25.458183 2.649820 19.260071 52.099465 0.002500 0.322800 0.887100 -1.832483 0.840492 0.680702 12.010131 -14.510793 -30.903767 -13.644161 -19.711179 70.859902 3.152665 -12.506375 -14.994353 -0.010800 0.670100 -1.841600 0.258934 5.402722 19.615280 -0.255025 7.773759 -3.114186 -5.070215 3.076231 -9.090750 0.653038 9.176179 -6.101053 4.707647 11.888524 9.282060 1.386300 6.099800 3.703200 5.492723 -11.563230 2.564921 -57.675832 -29.711003 0.281759 71.248358 -46.918871 -63.517230 -1.417202 -3.694365 24.171751 50.855446 32.794521 37.735700 -7.125000 0.000000 0.000000 43.118700 79.308200 35.273500 -6.953492 11.048080 2.043588 67.476226 5.687218 75.891544 -126.143368 47.291267 -94.725757 -1.515797 2.017097 -79.510084 6.152925 -20.043466 -1.675300 7.125000 0.000000 0.000000 32.149600 -49.054000 -3.550400 
-1.432106 15.703378 31.158489 0.383071 -55.330091 -6.135907 4.670368 0.321558 -4.214261 -4.379167 24.187928 -39.085566 4.781827 12.323573 26.681161 2.469738 18.422922 51.217705 0.000100 0.047000 0.129100 -1.924457 0.842252 0.673045 12.185612 -14.889577 -31.116415 -13.783395 -19.723892 71.397616 3.395643 -13.130275 -15.661926 -0.005600 0.482000 -1.324300 0.199080 5.275095 19.798174 -0.223669 7.588835 -3.113006 -4.823942 2.990249 -9.206149 0.671060 9.028804 -5.949753 4.828608 11.686323 9.100316 1.434900 6.010100 3.445400 5.382566 -11.601233 2.576265 -56.523378 -29.224984 0.936490 70.446156 -46.578256 -62.773393 -1.513951 -3.577014 25.390613 51.255423 33.320128 38.425100 -7.125000 0.000000 0.000000 45.732700 79.788300 37.922000 -6.897640 11.084371 2.082828 67.187562 5.733027 76.703437 -126.478308 47.113354 -94.948277 -1.509781 1.996043 -78.013266 7.111000 -19.783427 -2.043200 7.125000 0.000000 0.000000 32.915500 -48.718300 -3.355600 
-1.422777 15.658832 31.278482 -0.137048 -55.395104 -5.656780 5.017407 0.279387 -4.333439 -4.380961 24.109921 -39.374064 5.025613 12.637461 27.875933 2.331259 17.581312 50.387083 0.001000 -0.202500 -0.556300 -2.017537 0.849566 0.657967 12.351892 -15.266145 -31.363233 -13.904256 -19.729950 71.839216 3.603166 -13.652074 -16.155505 -0.003200 0.366300 -1.006500 0.157106 5.209113 19.919906 -0.199274 7.493341 -3.112346 -4.591364 2.944827 -9.304943 0.659975 8.868045 -5.795783 4.930330 11.472497 8.939970 1.476200 5.911200 3.207300 5.301292 -11.647580 2.595076 -55.415348 -29.025878 1.580978 69.610975 -46.156247 -61.963248 -1.612074 -3.471083 26.199597 51.608769 33.716593 39.014400 -7.125000 0.000000 0.000000 48.145300 80.114200 40.310900 -6.851207 11.118524 2.115874 66.953183 5.716455 77.199408 -127.044233 46.833737 -95.396954 -1.503048 1.971944 -77.879893 7.577351 -19.970018 -2.245700 7.125000 0.000000 0.000000 33.451900 -48.802700 -3.499500 
